<svg width="45" height="46" viewBox="0 0 45 46" fill="none" xmlns="http://www.w3.org/2000/svg">
<path d="M41.2502 32.4299V38.1799C41.2523 38.7137 41.1453 39.242 40.9361 39.7311C40.7269 40.2202 40.4201 40.6592 40.0353 41.0201C39.6505 41.381 39.1963 41.6557 38.7016 41.8267C38.2069 41.9977 37.6828 42.0612 37.1627 42.0132C31.393 41.3723 25.8508 39.357 20.9814 36.129C16.4511 33.1863 12.6102 29.26 9.73143 24.629C6.56264 19.6288 4.59064 13.9359 3.97518 8.01153C3.92832 7.48151 3.98995 6.94732 4.15612 6.44297C4.32229 5.93863 4.58938 5.47518 4.94037 5.08213C5.29136 4.68909 5.71856 4.37505 6.19479 4.16003C6.67101 3.945 7.18582 3.83369 7.70643 3.83319H13.3314C14.2414 3.82404 15.1235 4.15343 15.8135 4.75996C16.5034 5.3665 16.9541 6.2088 17.0814 7.12986C17.3188 8.96999 17.7591 10.7768 18.3939 12.5157C18.6462 13.2017 18.7008 13.9473 18.5513 14.664C18.4017 15.3808 18.0543 16.0387 17.5502 16.5599L15.1689 18.994C17.8381 23.7925 21.7248 27.7655 26.4189 30.494L28.8002 28.0599C29.31 27.5445 29.9536 27.1894 30.6548 27.0365C31.356 26.8837 32.0853 26.9395 32.7564 27.1974C34.4576 27.8462 36.2251 28.2963 38.0252 28.539C38.936 28.6704 39.7678 29.1393 40.3624 29.8567C40.9571 30.5741 41.273 31.4899 41.2502 32.4299Z" stroke="#017EF4" stroke-width="3" stroke-linecap="round" stroke-linejoin="round"/>
</svg>
