<svg width="41" height="48" viewBox="0 0 41 48" fill="none" xmlns="http://www.w3.org/2000/svg">
<path d="M38.5408 19.9659C38.5408 33.9394 20.2704 45.9167 20.2704 45.9167C20.2704 45.9167 2 33.9394 2 19.9659C2 15.2011 3.92491 10.6314 7.35128 7.26209C10.7776 3.89283 15.4248 2 20.2704 2C25.116 2 29.7632 3.89283 33.1895 7.26209C36.6159 10.6314 38.5408 15.2011 38.5408 19.9659Z" stroke="#017EF4" stroke-width="3" stroke-linecap="round" stroke-linejoin="round"/>
<path d="M20.2703 25.9235C23.6898 25.9235 26.4619 23.284 26.4619 20.0279C26.4619 16.7719 23.6898 14.1323 20.2703 14.1323C16.8507 14.1323 14.0786 16.7719 14.0786 20.0279C14.0786 23.284 16.8507 25.9235 20.2703 25.9235Z" stroke="#017EF4" stroke-width="3" stroke-linecap="round" stroke-linejoin="round"/>
</svg>
