<svg width="104" height="36" viewBox="0 0 104 36" fill="none" xmlns="http://www.w3.org/2000/svg">
<path fill-rule="evenodd" clip-rule="evenodd" d="M28.6373 22.4763C31.735 23.0401 34.4854 23.9499 36.623 25.1077C36.6397 25.1171 36.6546 25.1303 36.6657 25.1453C36.7233 25.2186 36.7122 25.3257 36.6397 25.3859C36.0176 25.837 35.3713 26.2524 34.7009 26.6264C33.3767 27.3557 31.9857 27.9515 30.5464 28.4045C30.5464 28.4214 30.5464 28.4383 30.5297 28.4383C29.0514 32.6674 25.1013 35.4962 20.6682 35.5H20.4027C15.7041 35.4906 11.4846 32.5885 9.74819 28.1696C9.69062 28.2034 9.62005 28.2034 9.56247 28.1696C8.36275 27.7504 7.20018 27.2335 6.08217 26.6264C5.46003 26.2749 4.85645 25.8915 4.27331 25.4761C4.24731 25.4554 4.22502 25.4291 4.20831 25.4009C4.13402 25.2693 4.17673 25.1021 4.30674 25.025C5.77574 24.2656 7.32089 23.6642 8.91433 23.23V22.6266C7.06832 23.1172 5.28917 23.8333 3.61216 24.7562C3.51559 24.8051 3.39859 24.7919 3.31502 24.7224C1.16072 22.8672 0 20.6625 0 18.3656C0 16.0687 1.14401 13.9034 3.2463 12.0426H3.26302C4.80445 12.9824 6.7266 13.77 8.91433 14.3733V13.77C7.24103 13.3132 5.6216 12.6723 4.08573 11.8584C4.05231 11.8396 4.02259 11.8171 3.99845 11.787C3.90373 11.6705 3.9223 11.4975 4.03745 11.4017C4.68745 10.9149 5.36903 10.475 6.08031 10.0859C6.99403 9.5841 7.94118 9.14427 8.91433 8.77023V6.00534C8.91247 5.01667 8.12504 4.21597 7.14818 4.21033H5.7386C5.46931 4.20469 5.25388 3.97914 5.25945 3.70659V1.00373C5.26131 0.725552 5.48231 0.5 5.75717 0.5H20.0702C20.3377 0.511278 20.5475 0.736829 20.5438 1.00749V3.71599C20.5457 3.98665 20.3302 4.20845 20.0628 4.21033H18.6384C17.6597 4.21221 16.8648 5.01479 16.8648 6.00534V8.13681C17.8138 7.44887 18.9318 7.041 20.0962 6.96206V15.0443C20.0944 15.1646 19.9997 15.2624 19.8808 15.2624C18.8705 15.2454 17.8584 15.1966 16.8648 15.1289V15.7153C17.8417 15.783 18.8371 15.8338 19.8474 15.8338C19.9885 15.8394 20.1 15.9578 20.0962 16.1007V20.903C20.1 21.0459 19.9885 21.1662 19.8474 21.1718C18.8371 21.1887 17.8417 21.2226 16.8648 21.3072V21.871C17.8472 21.8034 18.8427 21.7545 19.8362 21.7545H19.8418C19.9867 21.7564 20.1018 21.8748 20.1018 22.0214V29.4721C20.0925 29.6206 19.9662 29.7315 19.8214 29.7221C19.0767 29.6432 18.3505 29.427 17.6819 29.0849C18.6699 30.6788 20.3971 31.6487 22.2561 31.6506H22.5885C24.351 31.6525 26.0038 30.7822 27.0123 29.3199C25.9518 29.521 24.8413 29.6714 23.714 29.7898C23.6527 29.7935 23.5951 29.7616 23.5617 29.709C23.5115 29.6281 23.5357 29.521 23.6155 29.4702C25.8367 28.2128 27.5917 25.7129 28.4534 22.5947V22.589C28.4739 22.5063 28.5556 22.4556 28.6373 22.4763ZM15.8749 26.181V6.00534C15.8768 4.9678 16.4506 4.01673 17.3607 3.53931H16.2166C14.5025 3.53931 13.1003 4.92457 13.0595 6.65944V25.4441C13.0595 29.9552 16.6716 33.611 21.1288 33.611H21.2941C24.3955 33.6204 27.2221 31.816 28.5537 28.9816C28.4935 28.9968 28.4198 29.012 28.3461 29.0272L28.3216 29.0323C28.3152 29.0452 28.3112 29.0557 28.3079 29.0646C28.3024 29.0791 28.2985 29.0895 28.2881 29.1C27.2091 31.2841 25.001 32.6618 22.5885 32.6562H22.2561C18.7294 32.6468 15.8749 29.7503 15.8749 26.181ZM6.23074 1.50934V3.13144H9.51233C11.0241 3.13144 12.3686 4.10131 12.8645 5.54672C13.3529 4.10131 14.6975 3.13144 16.2074 3.13144H19.5707V1.50934H6.23074ZM20.399 34.4944H20.6645V34.5C24.4253 34.5019 27.8313 32.2502 29.3411 28.7635C29.2501 28.8011 29.1573 28.8293 29.0607 28.8481C27.7366 31.9908 24.6797 34.0264 21.3034 34.0132H21.1381C16.4618 34.0114 12.6732 30.177 12.6695 25.4441V6.65944C12.6286 4.92457 11.2265 3.53931 9.51233 3.53931H8.43518C9.34147 4.01861 9.90976 4.96968 9.90976 6.00534V23.8784C9.91719 29.739 14.6084 34.4869 20.399 34.4944Z" fill="#017EF4"/>
<path fill-rule="evenodd" clip-rule="evenodd" d="M34.7003 10.0859C35.4339 10.4901 36.1377 10.9487 36.8063 11.4562C36.8286 11.4731 36.8453 11.4956 36.8583 11.5201C36.9122 11.6235 36.8732 11.7532 36.771 11.8077C34.652 13.005 31.883 13.9203 28.7519 14.5086C28.6386 14.5274 28.529 14.4541 28.503 14.3395C27.7137 11.2212 25.9847 8.67813 23.8137 7.36241C23.7394 7.31918 23.6967 7.2346 23.7078 7.14814C23.7227 7.02972 23.8285 6.94514 23.9455 6.96018C25.305 7.09363 26.6533 7.30602 27.9886 7.59736V6.00534C27.9811 5.01103 27.1826 4.21033 26.2001 4.21033H24.7237C24.4544 4.20469 24.239 3.97914 24.2445 3.70659V1.00373C24.2445 0.725552 24.4655 0.5 24.7404 0.5H34.3363C34.6056 0.507518 34.821 0.73307 34.8173 1.00749V3.71599C34.8192 3.98665 34.6037 4.20845 34.3363 4.21033H32.8952C31.9164 4.21221 31.1216 5.01479 31.1216 6.00534V8.49205C32.3566 8.92248 33.5526 9.45628 34.7003 10.0859ZM29.325 7.93247C29.3498 7.93862 29.3742 7.94467 29.3981 7.95073V5.85309C29.3684 4.79112 28.6423 3.87952 27.6246 3.62389C28.4584 4.12011 28.9673 5.02607 28.9673 6.00534V7.83231C29.0893 7.87398 29.2113 7.90425 29.325 7.93247ZM25.2214 3.13144H27.0451C28.1706 3.1258 29.1827 3.81749 29.5987 4.8757C30.0259 3.82125 31.0399 3.13144 32.1672 3.13144H33.8386V1.50934H25.2214V3.13144ZM30.1429 8.16876V6.96018C30.1336 6.96018 30.1261 6.94514 30.1261 6.94514V6.00534C30.128 5.06178 30.6016 4.18401 31.3853 3.67276C30.5236 3.98289 29.9107 4.76481 29.8123 5.68581V8.06726C29.9126 8.10109 30.0277 8.13493 30.1429 8.16876Z" fill="#017EF4"/>
<path d="M20.9466 21.7537C23.1771 21.7781 25.4038 21.9623 27.6101 22.3044V22.3063L27.6147 22.3072C27.623 22.3088 27.6323 22.3106 27.6417 22.3138C27.7828 22.3552 27.8645 22.5036 27.8237 22.6465C26.6982 26.5711 24.0796 29.4112 20.9745 29.7288H20.9485C20.8018 29.7288 20.6792 29.6104 20.6792 29.46V22.0206C20.681 21.8721 20.7999 21.7537 20.9466 21.7537Z" fill="#017EF4"/>
<path d="M20.8705 15.2565C23.2495 15.2377 25.6248 15.0347 27.9722 14.6475C26.9192 10.3 24.0722 7.12916 20.6792 6.96751V15.0667C20.6792 15.1701 20.7628 15.2547 20.8649 15.2547H20.8705V15.2565Z" fill="#017EF4"/>
<path d="M37.7334 12.2235C37.6127 12.1164 37.4381 12.0994 37.3007 12.1821C35.139 13.4377 32.2864 14.4151 29.0419 15.0429C28.8414 15.0824 28.7095 15.276 28.7466 15.479C29.1014 17.4751 29.0846 19.5201 28.6984 21.5106C28.6575 21.7136 28.7856 21.9128 28.9862 21.9542H28.9918C32.1489 22.565 34.9551 23.503 37.1038 24.7115C37.2394 24.7886 37.4065 24.7736 37.5254 24.6721C39.65 22.8169 40.7884 20.6422 40.7884 18.3566C40.7884 16.071 39.7243 14.0335 37.7334 12.2216V12.2235Z" fill="#017EF4"/>
<path d="M27.7942 21.7393C25.5267 21.3822 23.2349 21.1924 20.9395 21.1755L20.9488 21.1679C20.8058 21.1679 20.6888 21.0495 20.6888 20.9048V16.1005C20.6906 15.9558 20.8058 15.8393 20.9488 15.8374C23.2628 15.8148 25.5712 15.6212 27.8574 15.2547C27.9911 15.2359 28.1174 15.3243 28.149 15.4577C28.5185 17.467 28.5 19.5289 28.0951 21.5307C28.0654 21.6698 27.9335 21.76 27.7942 21.7393Z" fill="#017EF4"/>
<path d="M102.197 13.4527L104 13.0167L103.926 11.8363H97.8213L97.7451 12.9584L99.3423 13.4696V17.3115H94.1014V13.4527L95.8471 13.0167L95.7728 11.8363H89.6312L89.5532 12.9415L91.2469 13.4696V23.2849L89.5179 23.8337L89.5941 24.9183H95.7728L95.8471 23.7003L94.1014 23.2623V18.8509H99.3423V23.2849L97.669 23.8149L97.7823 24.9183H103.942L104 23.7003L102.197 23.2623V13.4527Z" fill="#017EF4"/>
<path fill-rule="evenodd" clip-rule="evenodd" d="M57.5704 11.8153C58.779 11.7976 61.8919 11.752 62.3427 14.7854C62.8237 18.0484 60.8514 19.3716 59.1261 19.7927C57.6515 20.1442 56.1101 19.8754 55.7127 19.7927V23.2737L57.5698 23.7098L57.5048 24.9165C57.5048 24.9165 55.4304 24.815 54.3384 24.815C53.2464 24.815 51.2406 24.9165 51.2406 24.9165L51.1905 23.7098L52.8972 23.3056V13.4453C52.3698 13.3325 51.8535 13.169 51.3558 12.9585L51.6715 11.716C53.308 12.1438 55.1215 11.988 56.3474 11.8826C56.7589 11.8472 57.1042 11.8175 57.3544 11.8175C57.4169 11.8175 57.4894 11.8165 57.5704 11.8153ZM55.7145 13.6859V18.1142C58.6637 18.6179 59.4437 17.1274 59.4437 15.8512C59.4437 14.5749 58.6971 13.402 56.0135 13.6539C55.9607 13.6628 55.9078 13.667 55.8553 13.6712C55.8081 13.675 55.7611 13.6787 55.7145 13.6859Z" fill="#017EF4"/>
<path d="M75.2889 11.9793C75.2944 11.9342 75.2647 11.8929 75.2202 11.8854H75.2016C73.5766 11.9887 71.946 11.9793 70.321 11.8553L70.2449 12.9943L71.8049 13.4548C71.8049 13.4548 70.5828 16.9001 69.71 19.1801L69.6821 18.7459C69.6821 18.7459 68.41 15.6502 67.8714 14.2217C67.3328 12.7932 67.2326 12.406 67.2047 11.8271C67.2047 11.8271 65.6391 12.0526 63.015 11.8271L62.8812 12.968L64.3298 13.4811L67.5613 20.9525H69.0637C69.0637 20.9525 68.3691 23.3208 67.2233 23.4994L65.1562 22.1837C65.1562 22.1837 63.9305 22.5765 63.9714 23.8753C64.0122 25.1741 66.9261 26.2154 68.6366 24.3095C69.817 22.9953 71.3085 19.2647 72.2691 16.8621C72.6384 15.9385 72.9292 15.2111 73.0937 14.8927C73.4373 14.2461 74.1486 13.3514 75.1366 13.0657L75.2889 11.9793Z" fill="#017EF4"/>
<path fill-rule="evenodd" clip-rule="evenodd" d="M86.1738 23.0626C86.9185 23.1115 87.6149 23.1961 87.8638 23.2299C87.9214 23.245 87.9622 23.2995 87.9585 23.3596L87.5611 28.3913H86.0531L85.4959 24.9197H76.4145L75.536 28.3913H74.21L73.9779 23.3164C73.9797 23.2581 74.0224 23.2111 74.0782 23.1998C74.2769 23.1623 74.7913 23.0777 75.5862 23.0119C76.81 21.7394 77.2725 20.5665 77.7535 18.8561C78.2345 17.1457 78.1509 13.8582 78.1509 13.8582C77.6662 13.4353 77.0867 13.1402 76.4609 13.003C76.4535 13.003 76.446 13.0012 76.4386 12.9993C76.3903 12.9842 76.3625 12.9335 76.3773 12.8846L76.4275 11.9956C76.4349 11.9185 76.4999 11.8602 76.576 11.8621C77.2892 11.8621 80.5708 11.8621 83.2209 11.8959C86.2239 11.9298 87.8638 11.7775 87.8638 11.7775L87.8972 13.0162L86.1738 13.4353V23.0626ZM80.498 23.0549C81.8864 23.1274 82.6464 23.167 83.3398 23.1284V13.5519L79.7926 13.5857C79.7926 13.5857 79.943 15.3807 79.5438 18.3317C79.3283 19.9726 78.7638 21.5458 77.8872 22.9442C78.2382 22.9442 78.6096 22.9611 78.981 22.9781C79.5608 23.006 80.0606 23.0321 80.498 23.0549Z" fill="#017EF4"/>
</svg>
